<?xml version="1.0" standalone="no"?>
<!DOCTYPE svg PUBLIC "-//W3C//DTD SVG 20010904//EN"
  "http://www.w3.org/TR/2001/REC-SVG-20010904/DTD/svg10.dtd">
<svg version="1.0" xmlns="http://www.w3.org/2000/svg"
  width="700.000000pt" height="700.000000pt" viewBox="0 0 700.000000 700.000000"
  preserveAspectRatio="xMidYMid meet">
<metadata>
Created by potrace 1.14, written by Peter Selinger 2001-2017
</metadata>
<g transform="translate(0.000000,700.000000) scale(0.100000,-0.100000)"
fill="#000000" stroke="none">
<path d="M308 6982 c-40 -19 -71 -50 -96 -97 -13 -25 -16 -67 -17 -247 0 -120
-2 -218 -5 -219 -3 0 -30 -2 -60 -3 -76 -4 -94 -11 -115 -50 -16 -30 -17 -40
-7 -74 15 -50 55 -71 130 -69 28 1 53 -2 53 -8 1 -5 2 -104 3 -220 2 -183 4
-215 20 -245 37 -70 103 -110 184 -110 73 0 153 61 174 134 l12 39 9 -34 c20
-79 99 -138 184 -139 54 0 82 11 127 51 62 54 67 77 68 316 l0 213 87 0 c82 0
88 -2 98 -23 6 -13 38 -57 70 -98 77 -96 75 -90 123 -265 73 -266 127 -394
284 -667 77 -134 282 -503 409 -737 17 -30 38 -66 47 -80 9 -14 28 -50 42 -80
34 -76 126 -223 212 -338 39 -53 83 -117 97 -142 52 -91 67 -116 113 -184 25
-38 53 -92 61 -120 16 -51 49 -243 60 -346 3 -30 8 -71 10 -90 8 -71 22 -225
31 -345 12 -151 8 -469 -6 -495 -16 -30 -57 -149 -80 -235 -19 -73 -22 -84
-39 -175 -18 -93 -21 -113 -27 -169 -3 -30 -8 -64 -10 -75 -2 -11 -7 -89 -10
-173 -6 -138 -5 -153 10 -153 12 0 16 -10 17 -37 0 -21 2 -45 3 -53 2 -8 6
-48 10 -88 13 -134 63 -358 128 -572 13 -41 12 -46 -4 -60 -10 -8 -22 -38 -28
-67 -5 -28 -25 -91 -44 -140 -19 -48 -37 -109 -41 -135 -10 -69 -4 -71 268
-73 212 -2 299 3 314 19 19 19 4 96 -35 176 -22 47 -48 114 -57 150 -9 36 -21
70 -26 77 -7 7 -5 43 5 100 8 48 17 117 21 153 3 36 9 83 11 105 13 93 6 300
-11 375 -1 3 -5 20 -9 38 -6 27 -3 37 19 64 74 88 167 353 201 573 3 22 8 47
9 55 2 8 4 21 4 28 1 9 42 12 171 11 l170 0 0 -27 c0 -45 57 -287 89 -382 41
-119 77 -196 117 -252 30 -40 33 -49 24 -74 -16 -41 -24 -126 -24 -244 0 -99
12 -288 19 -300 1 -3 6 -32 10 -65 3 -33 11 -80 16 -104 8 -34 7 -47 -5 -60
-7 -9 -19 -43 -26 -76 -7 -33 -30 -95 -52 -139 -40 -79 -56 -150 -40 -174 16
-23 72 -28 292 -27 255 2 261 3 279 14 21 14 17 75 -9 146 -55 146 -70 192
-70 217 0 15 -9 33 -19 40 -19 14 -19 16 10 113 17 55 32 107 34 115 2 8 13
53 24 100 11 47 27 126 36 175 14 79 19 128 29 265 2 22 8 35 17 35 11 0 14
18 13 85 -1 90 -11 252 -19 310 -6 36 -22 142 -31 195 -18 106 -78 311 -113
385 -14 30 -16 68 -15 250 1 228 6 324 29 530 3 25 7 68 10 95 3 28 7 66 10
85 2 19 7 58 10 85 10 85 42 240 58 277 9 20 37 69 65 110 27 40 68 107 92
148 24 41 65 102 90 135 77 99 151 214 208 324 29 57 64 120 76 140 13 20 38
65 57 99 19 35 48 89 65 120 17 32 48 89 69 127 21 39 57 104 80 145 23 41 56
100 72 130 17 30 61 107 98 170 142 243 213 411 285 675 42 154 50 170 139
282 27 34 53 69 58 77 9 16 33 19 145 17 l77 -1 0 -207 c0 -233 1 -237 32
-285 89 -136 306 -104 346 52 l9 33 12 -40 c35 -119 188 -170 293 -97 76 52
83 79 84 321 1 117 4 215 7 218 3 3 27 6 54 6 61 1 108 22 123 55 15 33 14 50
-5 90 -18 38 -67 57 -128 51 -19 -2 -38 -1 -43 2 -4 3 -8 101 -8 217 0 184 -3
215 -19 252 -37 81 -135 127 -222 104 -62 -17 -98 -47 -128 -107 -14 -27 -25
-42 -25 -33 -1 30 -40 85 -79 112 -74 51 -169 44 -238 -17 -60 -52 -65 -76
-65 -314 0 -156 -4 -213 -12 -214 -7 -1 -57 -2 -112 -2 -90 -2 -102 0 -124 21
-29 26 -48 28 -73 5 -17 -15 -18 -15 -18 5 0 42 -57 50 -88 13 -8 -9 -11 -11
-8 -5 8 17 -29 46 -55 42 -13 -2 -28 -13 -34 -25 -11 -21 -11 -21 -23 -2 -24
37 -92 14 -92 -32 0 -10 -4 -19 -10 -19 -5 0 -10 8 -10 18 0 22 -40 62 -61 62
-25 0 -57 -29 -63 -58 l-6 -27 -1743 2 c-958 0 -1750 2 -1760 2 -11 1 -22 13
-29 31 -12 35 -36 51 -68 45 -31 -6 -41 -17 -49 -57 l-8 -33 -16 38 c-9 20
-23 40 -32 43 -25 10 -65 -5 -65 -24 -1 -15 -2 -14 -12 3 -23 40 -60 47 -88
15 -15 -17 -19 -18 -29 -6 -16 19 -52 12 -72 -15 -11 -15 -18 -18 -23 -10 -11
18 -43 13 -69 -12 -22 -20 -34 -22 -108 -20 -46 1 -87 2 -91 2 -3 1 -6 97 -6
214 -1 227 -7 262 -54 308 -65 62 -174 74 -247 26 -39 -26 -80 -88 -82 -124 0
-10 -7 1 -15 24 -17 46 -65 99 -104 115 -48 19 -123 19 -162 0z m2777 -762
c62 0 49 -16 -20 -25 -109 -15 -279 -103 -366 -190 -70 -69 -125 -165 -149
-259 -19 -74 -20 -111 -20 -537 l0 -458 -112 113 c-111 111 -151 147 -257 236
-130 108 -123 97 -219 366 -76 212 -108 287 -211 491 -44 90 -81 167 -81 172
0 5 15 14 33 22 17 7 43 25 57 41 19 21 35 28 70 30 34 2 825 1 1275 -2z
m2140 -34 c19 -20 47 -39 60 -42 14 -3 25 -9 25 -12 0 -3 -37 -80 -83 -171
-101 -201 -144 -301 -207 -482 -91 -259 -105 -285 -185 -347 -57 -44 -169
-143 -252 -224 l-72 -69 -4 333 c-2 183 -6 342 -9 354 -60 214 -107 302 -249
465 -90 103 -152 165 -197 197 l-43 31 53 3 c29 2 295 2 590 1 l538 -2 35 -35z"/>
</g>
</svg>
